# xmcd
#
# Track frame offsets: 
#        150
#        19620
#        38047
#        52745
#        71127
#        72245
#
# Disc length: 974 seconds
#
# Revision: 2
# Processed by: cddbd v1.5.2PL0 Copyright (c) Steve Scherf et al.
# Submitted via: ExactAudioCopyFreeDBPlugin 1.0
#
DISCID=4803cc06
DTITLE=Janet Jackson - I Get Lonely [CDS Promo)
DYEAR=1998
DGENRE=R&B
TTITLE0=Janet Jackson feat. Blackstreet - I Get Lonely (TNT Remix Edit
TTITLE0=)
TTITLE1=I Get Lonely (LP Edit)
TTITLE2=I Get Lonely Janet Vs. Jason the Club Remix - Radio Edit)
TTITLE3=I Get Lonely (Jam and Lewis Feel My Bass Mix - Radio Edit)
TTITLE4=I Get Lonely (Call Out Research Hook #1)
TTITLE5=I Get Lonely (Call Out Research Hook #2)
EXTD=
EXTT0=
EXTT1=
EXTT2=
EXTT3=
EXTT4=
EXTT5=
PLAYORDER=
